# xmcd
# 
# Track frame offsets:
#     150
#     25500
#     42750
#     65175
#     82950
#     98925
#     125700
#     145050
#     163200
# 
# Disc length: 2759
# 
# Revision: 1
# Processed by: cddbd v1.5.2PL0 Copyright (c) Steve Scherf et al.
# Submitted via: fre:ac v1.0.17
# 
DISCID=770ac509
DTITLE=Ibrahim Maalouf - S3ns
DYEAR=2019
DGENRE=Jazz
TTITLE0=Una Rosa Blanca (Ft. Harold Lopez-Nussa)
TTITLE1=Happy Face
TTITLE2=S3ens
TTITLE3=Harlem (Ft. Irving Acao)
TTITLE4=Na Na Na (Ft. Ylian Canizares)
TTITLE5=N.E.G.U. (Ft. Alfredo Rodriguez)
TTITLE6=Gebrayel (Fty. Roberto Fonseca)
TTITLE7=All I Can't Say
TTITLE8=Radio Magallanes
EXTD=YEAR: 2019
EXTT0=
EXTT1=
EXTT2=
EXTT3=
EXTT4=
EXTT5=
EXTT6=
EXTT7=
EXTT8=
PLAYORDER=
